<svg width="36" height="36" viewBox="0 0 36 36" fill="none" xmlns="http://www.w3.org/2000/svg">
<path d="M18 36C27.9411 36 36 27.9411 36 18C36 8.05887 27.9411 0 18 0C8.05887 0 0 8.05887 0 18C0 27.9411 8.05887 36 18 36Z" fill="#9D9D9F"/>
<g clip-path="url(#clip0_365_680)">
<path d="M10.4209 12.4059C10.4209 12.1667 10.5159 11.9373 10.6851 11.7681C10.8543 11.5989 11.0837 11.5039 11.3229 11.5039H23.9514C24.1906 11.5039 24.42 11.5989 24.5892 11.7681C24.7583 11.9373 24.8534 12.1667 24.8534 12.4059C24.8534 12.6452 24.7583 12.8746 24.5892 13.0438C24.42 13.2129 24.1906 13.308 23.9514 13.308H11.3229C11.0837 13.308 10.8543 13.2129 10.6851 13.0438C10.5159 12.8746 10.4209 12.6452 10.4209 12.4059ZM10.4209 23.2303C10.4209 22.9911 10.5159 22.7616 10.6851 22.5925C10.8543 22.4233 11.0837 22.3283 11.3229 22.3283H23.9514C24.1906 22.3283 24.42 22.4233 24.5892 22.5925C24.7583 22.7616 24.8534 22.9911 24.8534 23.2303C24.8534 23.4695 24.7583 23.699 24.5892 23.8681C24.42 24.0373 24.1906 24.1323 23.9514 24.1323H11.3229C11.0837 24.1323 10.8543 24.0373 10.6851 23.8681C10.5159 23.699 10.4209 23.4695 10.4209 23.2303ZM11.3229 16.9161C11.0837 16.9161 10.8543 17.0111 10.6851 17.1803C10.5159 17.3494 10.4209 17.5789 10.4209 17.8181C10.4209 18.0574 10.5159 18.2868 10.6851 18.4559C10.8543 18.6251 11.0837 18.7201 11.3229 18.7201H18.5392C18.7784 18.7201 19.0078 18.6251 19.177 18.4559C19.3462 18.2868 19.4412 18.0574 19.4412 17.8181C19.4412 17.5789 19.3462 17.3494 19.177 17.1803C19.0078 17.0111 18.7784 16.9161 18.5392 16.9161H11.3229Z" fill="#FAFAFF"/>
</g>
<defs>
<clipPath id="clip0_365_680">
<rect width="15.1579" height="15.1579" fill="white" transform="translate(10.4209 10.4209)"/>
</clipPath>
</defs>
</svg>
