<svg width="16" height="42" viewBox="0 0 16 42" fill="none" xmlns="http://www.w3.org/2000/svg">
<path d="M13.0827 0.5H12.3074V34.615H13.0827V0.5Z" fill="#1C1C1C"/>
<path d="M3.76975 39.6507C1.74873 38.2665 2.03225 35.0105 4.35911 32.4009C6.68597 29.7913 10.1997 28.7149 12.2207 30.0992C14.2417 31.4834 13.9582 34.7394 11.647 37.3884C9.32013 39.998 5.79077 41.035 3.76975 39.6507ZM11.8606 30.5155C11.0487 29.9267 8.67872 31.369 6.57732 33.7524C6.53193 33.7704 6.54756 33.8097 6.50217 33.8278C6.45678 33.8458 6.42701 33.9032 6.42701 33.9032C4.37101 36.2685 3.36347 38.6276 4.20506 39.159C5.0169 39.7478 7.38691 38.3055 9.48831 35.9221C9.5337 35.9041 9.51807 35.8648 9.56347 35.8467L9.59323 35.7894C11.6649 33.4633 12.6724 31.1043 11.8606 30.5155Z" fill="#1C1C1C"/>
</svg>
