<svg width="26" height="42" viewBox="0 0 26 42" fill="none" xmlns="http://www.w3.org/2000/svg">
<path fill-rule="evenodd" clip-rule="evenodd" d="M12.5808 0.5H13.4175V37.3162H12.5808V0.5ZM15.3951 9.26386C14.7634 8.90057 14.1034 8.52098 13.4177 8.11789V0.5C15.5229 4.15284 17.958 6.81441 20.0608 9.11286C24.6689 14.1496 27.6817 17.4426 22.1319 25.602C26.0169 15.3726 22.495 13.3471 15.3951 9.26386Z" fill="#929294"/>
<path d="M1.42128 39.573C-0.0544918 37.3797 1.52669 34.2268 4.89988 32.5362C8.27307 30.8455 12.226 31.1653 13.7018 33.3587C15.1776 35.552 13.5964 38.7049 10.2232 40.4412C6.85001 42.1319 2.89705 41.7664 1.42128 39.573Z" fill="#929294"/>
</svg>
