<svg width="26" height="44" viewBox="0 0 26 44" fill="none" xmlns="http://www.w3.org/2000/svg">
<path fill-rule="evenodd" clip-rule="evenodd" d="M12.8661 0H11.957V40H12.8661V0ZM13.0193 7.53608C22.1552 12.161 22.5901 16.545 22.8987 19.6565C22.9059 19.7286 22.913 19.8 22.9201 19.8707C22.0957 18.8296 21.1274 17.7713 20.0838 16.6306C17.8499 14.1889 15.2709 11.3701 13.0193 7.53608ZM12.8662 7.27295V0C13.9596 3.2599 16.1549 5.45389 18.2913 7.58907C21.5718 10.8677 24.7136 14.0076 23.5145 20.655C26.1652 24.3301 26.7903 27.9939 22.334 34.5457C26.5549 23.4316 22.7285 21.231 15.0146 16.7947C14.3282 16.4 13.6111 15.9876 12.8662 15.5496V7.45897V7.27295Z" fill="#929294"/>
<path d="M0.959855 42.073C-0.515918 39.8797 1.06527 36.7268 4.43846 35.0362C7.81165 33.3455 11.7646 33.6653 13.2404 35.8587C14.7161 38.052 13.135 41.2049 9.76177 42.9412C6.38858 44.6319 2.43562 44.2664 0.959855 42.073Z" fill="#929294"/>
</svg>
