<svg width="24" height="24" viewBox="0 0 24 24" fill="none" xmlns="http://www.w3.org/2000/svg">
<path d="M11.3999 7.7999C11.3999 7.64077 11.3367 7.48816 11.2242 7.37564C11.1116 7.26312 10.959 7.1999 10.7999 7.1999C10.6408 7.1999 10.4882 7.26312 10.3756 7.37564C10.2631 7.48816 10.1999 7.64077 10.1999 7.7999V10.1999H7.7999C7.64077 10.1999 7.48816 10.2631 7.37564 10.3756C7.26312 10.4882 7.1999 10.6408 7.1999 10.7999C7.1999 10.959 7.26312 11.1116 7.37564 11.2242C7.48816 11.3367 7.64077 11.3999 7.7999 11.3999H10.1999V13.7999C10.1999 13.959 10.2631 14.1116 10.3756 14.2242C10.4882 14.3367 10.6408 14.3999 10.7999 14.3999C10.959 14.3999 11.1116 14.3367 11.2242 14.2242C11.3367 14.1116 11.3999 13.959 11.3999 13.7999V11.3999H13.7999C13.959 11.3999 14.1116 11.3367 14.2242 11.2242C14.3367 11.1116 14.3999 10.959 14.3999 10.7999C14.3999 10.6408 14.3367 10.4882 14.2242 10.3756C14.1116 10.2631 13.959 10.1999 13.7999 10.1999H11.3999V7.7999ZM5.3999 2.3999C4.60425 2.3999 3.84119 2.71597 3.27858 3.27858C2.71597 3.84119 2.3999 4.60425 2.3999 5.3999V16.1999C2.3999 16.9956 2.71597 17.7586 3.27858 18.3212C3.84119 18.8838 4.60425 19.1999 5.3999 19.1999H16.1999C16.9956 19.1999 17.7586 18.8838 18.3212 18.3212C18.8838 17.7586 19.1999 16.9956 19.1999 16.1999V5.3999C19.1999 4.60425 18.8838 3.84119 18.3212 3.27858C17.7586 2.71597 16.9956 2.3999 16.1999 2.3999H5.3999ZM3.5999 5.3999C3.5999 4.92251 3.78954 4.46468 4.12711 4.12711C4.46468 3.78954 4.92251 3.5999 5.3999 3.5999H16.1999C16.6773 3.5999 17.1351 3.78954 17.4727 4.12711C17.8103 4.46468 17.9999 4.92251 17.9999 5.3999V16.1999C17.9999 16.6773 17.8103 17.1351 17.4727 17.4727C17.1351 17.8103 16.6773 17.9999 16.1999 17.9999H5.3999C4.92251 17.9999 4.46468 17.8103 4.12711 17.4727C3.78954 17.1351 3.5999 16.6773 3.5999 16.1999V5.3999ZM8.9999 21.5999C7.90035 21.6015 6.84431 21.1704 6.0599 20.3999H17.3999C18.1956 20.3999 18.9586 20.0838 19.5212 19.5212C20.0838 18.9586 20.3999 18.1956 20.3999 17.3999V6.0599C21.1427 6.8183 21.5999 7.8551 21.5999 8.9999V17.3999C21.5999 18.5138 21.1574 19.5821 20.3698 20.3698C19.5821 21.1574 18.5138 21.5999 17.3999 21.5999H8.9999Z" fill="#FAFAFF"/>
</svg>
