<svg width="100" height="22" viewBox="0 0 100 22" fill="none" xmlns="http://www.w3.org/2000/svg">
<path d="M13.7266 1V17H11.1484L3.60938 6.10156H3.47656V17H0.578125V1H3.17188L10.7031 11.9062H10.8438V1H13.7266ZM21.9941 17.2344C20.8223 17.2344 19.8066 16.9766 18.9473 16.4609C18.0879 15.9453 17.4212 15.224 16.9473 14.2969C16.4785 13.3698 16.2441 12.2865 16.2441 11.0469C16.2441 9.80729 16.4785 8.72135 16.9473 7.78906C17.4212 6.85677 18.0879 6.13281 18.9473 5.61719C19.8066 5.10156 20.8223 4.84375 21.9941 4.84375C23.166 4.84375 24.1816 5.10156 25.041 5.61719C25.9004 6.13281 26.5645 6.85677 27.0332 7.78906C27.5072 8.72135 27.7441 9.80729 27.7441 11.0469C27.7441 12.2865 27.5072 13.3698 27.0332 14.2969C26.5645 15.224 25.9004 15.9453 25.041 16.4609C24.1816 16.9766 23.166 17.2344 21.9941 17.2344ZM22.0098 14.9687C22.6452 14.9687 23.1764 14.7943 23.6035 14.4453C24.0306 14.0911 24.3483 13.6172 24.5566 13.0234C24.7702 12.4297 24.877 11.7682 24.877 11.0391C24.877 10.3047 24.7702 9.64062 24.5566 9.04687C24.3483 8.44792 24.0306 7.97135 23.6035 7.61719C23.1764 7.26302 22.6452 7.08594 22.0098 7.08594C21.3587 7.08594 20.8171 7.26302 20.3848 7.61719C19.9577 7.97135 19.6374 8.44792 19.4238 9.04687C19.2155 9.64062 19.1113 10.3047 19.1113 11.0391C19.1113 11.7682 19.2155 12.4297 19.4238 13.0234C19.6374 13.6172 19.9577 14.0911 20.3848 14.4453C20.8171 14.7943 21.3587 14.9687 22.0098 14.9687ZM30.1445 17V5H32.8867V7H33.0117C33.2305 6.30729 33.6055 5.77344 34.1367 5.39844C34.6732 5.01823 35.2852 4.82812 35.9727 4.82812C36.1289 4.82812 36.3034 4.83594 36.4961 4.85156C36.694 4.86198 36.8581 4.88021 36.9883 4.90625V7.50781C36.8685 7.46615 36.6784 7.42969 36.418 7.39844C36.1628 7.36198 35.9154 7.34375 35.6758 7.34375C35.1602 7.34375 34.6966 7.45573 34.2852 7.67969C33.8789 7.89844 33.5586 8.20312 33.3242 8.59375C33.0898 8.98437 32.9727 9.4349 32.9727 9.94531V17H30.1445ZM43.6855 17.2344C42.4824 17.2344 41.4434 16.9844 40.5684 16.4844C39.6986 15.9792 39.0293 15.2656 38.5605 14.3437C38.0918 13.4167 37.8574 12.3255 37.8574 11.0703C37.8574 9.83594 38.0918 8.7526 38.5605 7.82031C39.0345 6.88281 39.696 6.15365 40.5449 5.63281C41.3939 5.10677 42.3913 4.84375 43.5371 4.84375C44.2767 4.84375 44.9746 4.96354 45.6309 5.20312C46.2923 5.4375 46.8757 5.80208 47.3809 6.29687C47.8913 6.79167 48.2923 7.42187 48.584 8.1875C48.8757 8.94792 49.0215 9.85417 49.0215 10.9062V11.7734H39.1855V9.86719H46.3105C46.3053 9.32552 46.1882 8.84375 45.959 8.42187C45.7298 7.99479 45.4095 7.65885 44.998 7.41406C44.5918 7.16927 44.1178 7.04687 43.5762 7.04687C42.998 7.04687 42.4902 7.1875 42.0527 7.46875C41.6152 7.74479 41.2741 8.10937 41.0293 8.5625C40.7897 9.01042 40.6673 9.5026 40.6621 10.0391V11.7031C40.6621 12.401 40.7897 13 41.0449 13.5C41.3001 13.9948 41.6569 14.375 42.1152 14.6406C42.5736 14.901 43.11 15.0312 43.7246 15.0312C44.1361 15.0312 44.5085 14.974 44.8418 14.8594C45.1751 14.7396 45.4642 14.5651 45.709 14.3359C45.9538 14.1068 46.1387 13.8229 46.2637 13.4844L48.9043 13.7812C48.7376 14.4792 48.4199 15.0885 47.9512 15.6094C47.4876 16.125 46.8939 16.526 46.1699 16.8125C45.446 17.0937 44.6178 17.2344 43.6855 17.2344ZM53.8262 17L50.4355 5H53.3184L55.4277 13.4375H55.5371L57.6934 5H60.5449L62.7012 13.3906H62.8184L64.8965 5H67.7871L64.3887 17H61.4434L59.1934 8.89062H59.0293L56.7793 17H53.8262ZM69.7617 17V5H72.5898V17H69.7617ZM71.1836 3.29688C70.7357 3.29688 70.3503 3.14844 70.0273 2.85156C69.7044 2.54948 69.543 2.1875 69.543 1.76562C69.543 1.33854 69.7044 0.976562 70.0273 0.679686C70.3503 0.377603 70.7357 0.226562 71.1836 0.226562C71.6367 0.226562 72.0221 0.377603 72.3398 0.679686C72.6628 0.976562 72.8242 1.33854 72.8242 1.76562C72.8242 2.1875 72.6628 2.54948 72.3398 2.85156C72.0221 3.14844 71.6367 3.29688 71.1836 3.29688ZM78.3262 9.96875V17H75.498V5H78.2012V7.03906H78.3418C78.6178 6.36719 79.0579 5.83333 79.6621 5.4375C80.2715 5.04167 81.0241 4.84375 81.9199 4.84375C82.748 4.84375 83.4694 5.02083 84.084 5.375C84.7038 5.72917 85.1829 6.24219 85.5215 6.91406C85.8652 7.58594 86.0345 8.40104 86.0293 9.35937V17H83.2012V9.79687C83.2012 8.99479 82.9928 8.36719 82.5762 7.91406C82.1647 7.46094 81.5944 7.23437 80.8652 7.23437C80.3704 7.23437 79.9303 7.34375 79.5449 7.5625C79.1647 7.77604 78.8652 8.08594 78.6465 8.49219C78.4329 8.89844 78.3262 9.39062 78.3262 9.96875ZM94.123 21.75C93.1074 21.75 92.235 21.612 91.5059 21.3359C90.7767 21.0651 90.1908 20.7005 89.748 20.2422C89.3053 19.7839 88.998 19.276 88.8262 18.7188L91.373 18.1016C91.4876 18.3359 91.6543 18.5677 91.873 18.7969C92.0918 19.0313 92.3861 19.224 92.7559 19.375C93.1309 19.5313 93.6022 19.6094 94.1699 19.6094C94.972 19.6094 95.6361 19.4141 96.1621 19.0234C96.6882 18.638 96.9512 18.0026 96.9512 17.1172V14.8437H96.8105C96.6647 15.1354 96.4512 15.4349 96.1699 15.7422C95.8939 16.0495 95.5267 16.3073 95.0684 16.5156C94.6152 16.724 94.0449 16.8281 93.3574 16.8281C92.4355 16.8281 91.5996 16.612 90.8496 16.1797C90.1048 15.7422 89.5111 15.0911 89.0684 14.2266C88.6309 13.3568 88.4121 12.2682 88.4121 10.9609C88.4121 9.64323 88.6309 8.53125 89.0684 7.625C89.5111 6.71354 90.1074 6.02344 90.8574 5.55469C91.6074 5.08073 92.4434 4.84375 93.3652 4.84375C94.0684 4.84375 94.6465 4.96354 95.0996 5.20312C95.5579 5.4375 95.9225 5.72135 96.1934 6.05469C96.4642 6.38281 96.6699 6.69271 96.8105 6.98437H96.9668V5H99.7559V17.1953C99.7559 18.2214 99.5111 19.0703 99.0215 19.7422C98.5319 20.4141 97.8626 20.9167 97.0137 21.25C96.1647 21.5833 95.2012 21.75 94.123 21.75ZM94.1465 14.6094C94.7454 14.6094 95.2559 14.4635 95.6777 14.1719C96.0996 13.8802 96.4199 13.4609 96.6387 12.9141C96.8574 12.3672 96.9668 11.7109 96.9668 10.9453C96.9668 10.1901 96.8574 9.52865 96.6387 8.96094C96.4251 8.39323 96.1074 7.95312 95.6855 7.64062C95.2689 7.32292 94.7559 7.16406 94.1465 7.16406C93.5163 7.16406 92.9902 7.32812 92.5684 7.65625C92.1465 7.98437 91.8288 8.4349 91.6152 9.00781C91.4017 9.57552 91.2949 10.2214 91.2949 10.9453C91.2949 11.6797 91.4017 12.3229 91.6152 12.875C91.834 13.4219 92.1543 13.849 92.5762 14.1562C93.0033 14.4583 93.5267 14.6094 94.1465 14.6094Z" fill="#FAFAFF"/>
</svg>
