<svg viewBox="0 0 12 41" >
<path fill-rule="evenodd" clip-rule="evenodd" d="M10.3073 0.5H11.0826V31.0027C12.0764 32.6237 11.5466 35.2111 9.64689 37.3884C7.32003 39.998 3.79067 41.035 1.76965 39.6507C-0.251368 38.2665 0.03215 35.0105 2.35901 32.4009C4.68587 29.7913 8.1996 28.7149 10.2206 30.0991C10.25 30.1193 10.2789 30.1398 10.3073 30.1607V0.5ZM4.57722 33.7524C6.67862 31.369 9.04864 29.9267 9.86047 30.5155C10.6723 31.1043 9.66476 33.4633 7.59313 35.7894L7.56337 35.8467C7.54067 35.8557 7.53323 35.8701 7.52579 35.8844C7.51835 35.8988 7.5109 35.9131 7.48821 35.9221C5.38682 38.3055 3.0168 39.7478 2.20497 39.159C1.36337 38.6276 2.37091 36.2685 4.42691 33.9032C4.42691 33.9032 4.45668 33.8458 4.50207 33.8278C4.52476 33.8187 4.53221 33.8044 4.53965 33.7901C4.54709 33.7757 4.55453 33.7614 4.57722 33.7524Z" />
</svg>

