<svg viewBox="0 0 26 42" >
<path fill-rule="evenodd" clip-rule="evenodd" d="M13.4175 0.5H12.5808V32.2917C10.7089 31.117 7.61639 31.1746 4.89988 32.5362C1.52669 34.2268 -0.0544918 37.3797 1.42128 39.5731C2.89705 41.7664 6.85001 42.1319 10.2232 40.4412C13.5964 38.7049 15.1776 35.552 13.7018 33.3587C13.6153 33.2302 13.5204 33.1081 13.4175 32.9925V0.5ZM15.3949 9.26376L15.3951 9.26386C22.495 13.3471 26.0169 15.3726 22.1319 25.602C27.6817 17.4426 24.6689 14.1496 20.0608 9.11286C17.958 6.81441 15.5229 4.15284 13.4177 0.5V8.11789C14.1033 8.52095 14.7633 8.9005 15.3949 9.26376Z"  />
</svg>
