<svg viewBox="0 0 8 8"  >
<path fill-rule="evenodd" clip-rule="evenodd" d="M7.36025 1.70025C7.65314 1.40736 7.65314 0.932485 7.36025 0.639592C7.06736 0.346698 6.59248 0.346698 6.29959 0.639592L3.99992 2.93926L1.70025 0.639592C1.40736 0.346698 0.932485 0.346698 0.639592 0.639592C0.346698 0.932485 0.346698 1.40736 0.639592 1.70025L2.93926 3.99992L0.639592 6.29959C0.346698 6.59248 0.346698 7.06736 0.639592 7.36025C0.932485 7.65314 1.40736 7.65314 1.70025 7.36025L3.99992 5.06058L6.29959 7.36025C6.59248 7.65314 7.06736 7.65314 7.36025 7.36025C7.65314 7.06736 7.65314 6.59248 7.36025 6.29959L5.06058 3.99992L7.36025 1.70025Z" />
</svg>
