<svg viewBox="0 0 18 16">
<path fill-rule="evenodd" clip-rule="evenodd" d="M3.90343 1.6714C2.67675 2.52911 1.58286 3.69867 0.679994 5.1179C0.2098 5.8548 0 6.79188 0 7.68343C0 8.57478 0.209708 9.51164 0.679681 10.2485C2.68894 13.4071 5.64435 15.3293 8.90417 15.3293C9.59369 15.3293 10.2696 15.2433 10.9258 15.0778L10.205 13.7017C9.77599 13.7864 9.3414 13.8293 8.90417 13.8293C6.28065 13.8293 3.75273 12.2847 1.94532 9.44339L1.94469 9.4424C1.66511 9.00439 1.5 8.36669 1.5 7.68343C1.5 7.00018 1.66511 6.36247 1.94469 5.92446L1.94532 5.92347C2.71704 4.71029 3.62011 3.73353 4.60589 3.01246L3.90343 1.6714ZM12.9715 12.5177C14.0473 11.7835 15.0314 10.7507 15.863 9.44339L15.8636 9.4424C16.1432 9.00439 16.3083 8.36669 16.3083 7.68343C16.3083 7.00018 16.1432 6.36247 15.8636 5.92446L15.863 5.92347C14.0556 3.08213 11.5277 1.5376 8.90417 1.5376C8.37021 1.5376 7.84021 1.60158 7.31944 1.72745L6.6053 0.364086C7.34782 0.149644 8.11712 0.0375977 8.90417 0.0375977C12.164 0.0375977 15.1194 1.95973 17.1287 5.11839C17.5986 5.85522 17.8083 6.79208 17.8083 7.68343C17.8083 8.57498 17.5985 9.51206 17.1283 10.249C16.1686 11.7576 14.9929 12.9842 13.6714 13.8539L12.9715 12.5177ZM5.08748 0.90925C5.45332 0.717622 5.81892 0.694076 5.90408 0.85666L12.9068 14.2255C12.992 14.3881 12.7645 14.6752 12.3986 14.8669C12.0328 15.0585 11.6672 15.0821 11.582 14.9195L4.57928 1.55061C4.49411 1.38802 4.72164 1.10088 5.08748 0.90925ZM5.1709 7.68747C5.1709 6.85871 5.43995 6.09363 5.89561 5.47469L6.74804 7.10205C6.69773 7.28855 6.6709 7.48481 6.6709 7.68747C6.6709 8.66138 7.29046 9.48732 8.15792 9.79364L9.00949 11.4194C8.97452 11.4203 8.93943 11.4208 8.90423 11.4208C6.84002 11.4208 5.1709 9.75169 5.1709 7.68747ZM11.1376 7.68747C11.1376 8.02265 11.0642 8.3403 10.9326 8.62528L11.724 10.1362C12.2933 9.48103 12.6376 8.625 12.6376 7.68747C12.6376 5.62326 10.9684 3.95414 8.90423 3.95414C8.76668 3.95414 8.63089 3.96155 8.49723 3.976L9.28867 5.48693C10.3405 5.66852 11.1376 6.58282 11.1376 7.68747Z"/>
</svg>
