<svg viewBox="0 0 18 16">
<path fill-rule="evenodd" clip-rule="evenodd" d="M8.90417 0C5.64452 0 2.68925 1.92193 0.679994 5.0803C0.2098 5.81721 0 6.75429 0 7.64583C0 8.53718 0.209708 9.47404 0.679681 10.2109C2.68894 13.3695 5.64435 15.2917 8.90417 15.2917C12.1638 15.2917 15.1191 13.3697 17.1283 10.2114C17.5985 9.47446 17.8083 8.53738 17.8083 7.64583C17.8083 6.75448 17.5986 5.81762 17.1287 5.08079C15.1194 1.92213 12.164 0 8.90417 0ZM1.94532 5.88588C3.75273 3.04453 6.28065 1.5 8.90417 1.5C11.5277 1.5 14.0556 3.04453 15.863 5.88588L15.8636 5.88686C16.1432 6.32488 16.3083 6.96258 16.3083 7.64583C16.3083 8.32909 16.1432 8.96679 15.8636 9.40481L15.863 9.40579C14.0556 12.2471 11.5277 13.7917 8.90417 13.7917C6.28065 13.7917 3.75273 12.2471 1.94532 9.40579L1.94469 9.40481C1.66511 8.96679 1.5 8.32909 1.5 7.64583C1.5 6.96258 1.66511 6.32488 1.94469 5.88686L1.94532 5.88588ZM6.6709 7.64984C6.6709 6.41405 7.66845 5.4165 8.90423 5.4165C10.14 5.4165 11.1376 6.41405 11.1376 7.64984C11.1376 8.88562 10.14 9.88317 8.90423 9.88317C7.66845 9.88317 6.6709 8.88562 6.6709 7.64984ZM8.90423 3.9165C6.84002 3.9165 5.1709 5.58562 5.1709 7.64984C5.1709 9.71405 6.84002 11.3832 8.90423 11.3832C10.9684 11.3832 12.6376 9.71405 12.6376 7.64984C12.6376 5.58562 10.9684 3.9165 8.90423 3.9165Z" />
</svg>


 