<svg width="45" height="45" viewBox="0 0 45 45" fill="none" xmlns="http://www.w3.org/2000/svg">
<g filter="url(#filter0_b_302_4853)">
<rect width="44.0471" height="44.0471" rx="22.0235" fill="white"/>
</g>
<g clip-path="url(#clip0_302_4853)">
<path d="M13.8527 17.9726C14.3004 17.0061 14.9396 16.1369 15.7331 15.4157C17.3741 13.8591 19.5394 12.9479 21.8187 12.855C24.098 12.7622 26.3328 13.494 28.0994 14.9118C28.1514 14.9536 28.199 15.0017 28.2543 15.0366C28.4447 15.1613 28.4606 15.2717 28.279 15.4451C27.514 16.1766 26.7624 16.9212 26.0101 17.6652C25.8831 17.7899 25.7936 17.8523 25.6228 17.7057C23.0059 15.4544 18.6033 16.3531 17.0885 19.9464C17.046 20.0481 16.9984 20.1479 16.9533 20.2483C16.3 19.7531 15.6537 19.2505 14.9903 18.7672C14.6454 18.4579 14.2634 18.191 13.8527 17.9726Z" fill="#F5483C"/>
<path d="M28.38 28.9955C27.3607 29.9566 26.0885 30.6192 24.7067 30.9088C21.0284 31.7195 17.8338 30.8589 15.2328 28.1192C14.6618 27.5402 14.2028 26.864 13.8781 26.1236C13.9961 26.0401 14.1168 25.959 14.2323 25.8742C15.1406 25.1907 16.0482 24.5065 16.9552 23.8218C17.31 24.7805 17.9104 25.6332 18.6985 26.2976C19.5961 27.0272 20.6997 27.4694 21.8607 27.5646C23.0218 27.6598 24.1847 27.4035 25.193 26.8302C25.2705 26.7859 25.3505 26.746 25.4292 26.7055C25.8101 26.9967 26.1942 27.283 26.5719 27.5786C27.1693 28.0525 27.8162 28.4735 28.38 28.9955Z" fill="#02AA5A"/>
<path d="M28.3807 28.9957C27.8156 28.4737 27.1694 28.0528 26.5688 27.5745C26.1942 27.2764 25.807 26.9907 25.426 26.7014C26.2308 26.1432 26.8301 25.3442 27.1344 24.4239L27.1541 24.3615C27.297 23.9069 27.297 23.9069 26.8316 23.9069C25.4038 23.9069 23.9748 23.9006 22.5483 23.9125C22.2829 23.9125 22.2023 23.8451 22.2067 23.5801C22.2226 22.6197 22.2207 21.6587 22.2067 20.6976C22.2035 20.4563 22.2645 20.3758 22.5241 20.3765C25.2561 20.3856 27.9879 20.3856 30.7194 20.3765C30.9937 20.3765 31.0686 20.4844 31.0965 20.7095C31.3579 22.4882 31.1523 24.303 30.4991 25.9817C30.0547 27.1415 29.3273 28.1765 28.3807 28.9957Z" fill="#4080EE"/>
<path d="M16.9558 23.8168C16.0484 24.5011 15.1407 25.1853 14.2329 25.8692C14.1174 25.9559 13.9967 26.0369 13.8787 26.1186C13.491 25.4739 13.2219 24.7671 13.0838 24.0307C12.6264 22.0926 12.8376 20.06 13.6844 18.2527C13.7347 18.1555 13.7907 18.0612 13.852 17.9702C14.2627 18.1893 14.6445 18.457 14.989 18.7672C15.6531 19.2487 16.2987 19.7532 16.952 20.2484C16.8232 20.7475 16.7319 21.2553 16.679 21.7675C16.6718 22.4601 16.765 23.1501 16.9558 23.8168Z" fill="#FDBF37"/>
</g>
<defs>
<filter id="filter0_b_302_4853" x="-3" y="-3" width="50.0471" height="50.0469" filterUnits="userSpaceOnUse" color-interpolation-filters="sRGB">
<feFlood flood-opacity="0" result="BackgroundImageFix"/>
<feGaussianBlur in="BackgroundImageFix" stdDeviation="1.5"/>
<feComposite in2="SourceAlpha" operator="in" result="effect1_backgroundBlur_302_4853"/>
<feBlend mode="normal" in="SourceGraphic" in2="effect1_backgroundBlur_302_4853" result="shape"/>
</filter>
<clipPath id="clip0_302_4853">
<rect width="18.3529" height="18.3529" fill="white" transform="translate(12.847 12.8472)"/>
</clipPath>
</defs>
</svg>
