<svg viewBox="0 0 22 22">
<path fill-rule="evenodd" clip-rule="evenodd" d="M14.73 0.25C13.8697 0.25 13.0731 0.406656 12.5048 0.941238C11.9251 1.48664 11.75 2.26514 11.75 3.1V9.9C11.75 10.7349 11.9251 11.5134 12.5048 12.0588C13.0731 12.5933 13.8697 12.75 14.73 12.75H18.77C19.6303 12.75 20.4269 12.5933 20.9952 12.0588C21.5749 11.5134 21.75 10.7349 21.75 9.9V3.1C21.75 2.26514 21.5749 1.48664 20.9952 0.941238C20.4269 0.406656 19.6303 0.25 18.77 0.25H14.73ZM13.25 3.1C13.25 2.43486 13.3949 2.16336 13.5327 2.03376C13.6819 1.89334 14.0003 1.75 14.73 1.75H18.77C19.4997 1.75 19.8181 1.89334 19.9673 2.03376C20.1051 2.16336 20.25 2.43486 20.25 3.1V9.9C20.25 10.5651 20.1051 10.8366 19.9673 10.9662C19.8181 11.1067 19.4997 11.25 18.77 11.25H14.73C14.0003 11.25 13.6819 11.1067 13.5327 10.9662C13.3949 10.8366 13.25 10.5651 13.25 9.9V3.1ZM14.73 14.25C13.8697 14.25 13.0731 14.4067 12.5048 14.9412C11.9251 15.4866 11.75 16.2651 11.75 17.1V18.9C11.75 19.7349 11.9251 20.5134 12.5048 21.0588C13.0731 21.5933 13.8697 21.75 14.73 21.75H18.77C19.6303 21.75 20.4269 21.5933 20.9952 21.0588C21.5749 20.5134 21.75 19.7349 21.75 18.9V17.1C21.75 16.2651 21.5749 15.4866 20.9952 14.9412C20.4269 14.4067 19.6303 14.25 18.77 14.25H14.73ZM13.25 17.1C13.25 16.4349 13.3949 16.1634 13.5327 16.0338C13.6819 15.8933 14.0003 15.75 14.73 15.75H18.77C19.4997 15.75 19.8181 15.8933 19.9673 16.0338C20.1051 16.1634 20.25 16.4349 20.25 17.1V18.9C20.25 19.5651 20.1051 19.8366 19.9673 19.9662C19.8181 20.1067 19.4997 20.25 18.77 20.25H14.73C14.0003 20.25 13.6819 20.1067 13.5327 19.9662C13.3949 19.8366 13.25 19.5651 13.25 18.9V17.1ZM2.03265 11.0338C1.8949 11.1634 1.75 11.4349 1.75 12.1V18.9C1.75 19.5651 1.8949 19.8366 2.03265 19.9662C2.18191 20.1067 2.50032 20.25 3.23 20.25H7.27C7.99969 20.25 8.31809 20.1067 8.46735 19.9662C8.6051 19.8366 8.75 19.5651 8.75 18.9V12.1C8.75 11.4349 8.6051 11.1634 8.46735 11.0338C8.31809 10.8933 7.99969 10.75 7.27 10.75H3.23C2.50032 10.75 2.18191 10.8933 2.03265 11.0338ZM1.00485 9.94124C1.57309 9.40666 2.36968 9.25 3.23 9.25H7.27C8.13032 9.25 8.92691 9.40666 9.49516 9.94124C10.0749 10.4866 10.25 11.2651 10.25 12.1V18.9C10.25 19.7349 10.0749 20.5134 9.49516 21.0588C8.92691 21.5933 8.13032 21.75 7.27 21.75H3.23C2.36968 21.75 1.57309 21.5933 1.00485 21.0588C0.425099 20.5134 0.25 19.7349 0.25 18.9V12.1C0.25 11.2651 0.425099 10.4866 1.00485 9.94124ZM1.75 3.1C1.75 2.43486 1.8949 2.16336 2.03265 2.03376C2.18191 1.89334 2.50032 1.75 3.23 1.75H7.27C7.99969 1.75 8.31809 1.89334 8.46735 2.03376C8.6051 2.16336 8.75 2.43486 8.75 3.1V4.9C8.75 5.56514 8.6051 5.83664 8.46735 5.96624C8.31809 6.10666 7.99969 6.25 7.27 6.25H3.23C2.50032 6.25 2.18191 6.10666 2.03265 5.96624C1.8949 5.83664 1.75 5.56514 1.75 4.9V3.1ZM3.23 0.25C2.36968 0.25 1.57309 0.406656 1.00485 0.941238C0.425099 1.48664 0.25 2.26514 0.25 3.1V4.9C0.25 5.73486 0.425099 6.51336 1.00485 7.05876C1.57309 7.59334 2.36968 7.75 3.23 7.75H7.27C8.13032 7.75 8.92691 7.59334 9.49516 7.05876C10.0749 6.51336 10.25 5.73486 10.25 4.9V3.1C10.25 2.26514 10.0749 1.48664 9.49516 0.941238C8.92691 0.406656 8.13032 0.25 7.27 0.25H3.23Z" />
</svg>
