<svg viewBox="0 0 15 14" >
<path d="M0.420898 1.40594C0.420898 1.1667 0.515934 0.937268 0.685097 0.768105C0.854261 0.598941 1.0837 0.503906 1.32293 0.503906H13.9514C14.1906 0.503906 14.42 0.598941 14.5892 0.768105C14.7583 0.937268 14.8534 1.1667 14.8534 1.40594C14.8534 1.64517 14.7583 1.8746 14.5892 2.04377C14.42 2.21293 14.1906 2.30797 13.9514 2.30797H1.32293C1.0837 2.30797 0.854261 2.21293 0.685097 2.04377C0.515934 1.8746 0.420898 1.64517 0.420898 1.40594ZM0.420898 12.2303C0.420898 11.9911 0.515934 11.7616 0.685097 11.5925C0.854261 11.4233 1.0837 11.3283 1.32293 11.3283H13.9514C14.1906 11.3283 14.42 11.4233 14.5892 11.5925C14.7583 11.7616 14.8534 11.9911 14.8534 12.2303C14.8534 12.4695 14.7583 12.699 14.5892 12.8681C14.42 13.0373 14.1906 13.1323 13.9514 13.1323H1.32293C1.0837 13.1323 0.854261 13.0373 0.685097 12.8681C0.515934 12.699 0.420898 12.4695 0.420898 12.2303ZM1.32293 5.91609C1.0837 5.91609 0.854261 6.01112 0.685097 6.18029C0.515934 6.34945 0.420898 6.57888 0.420898 6.81812C0.420898 7.05735 0.515934 7.28679 0.685097 7.45595C0.854261 7.62511 1.0837 7.72015 1.32293 7.72015H8.53917C8.7784 7.72015 9.00784 7.62511 9.177 7.45595C9.34616 7.28679 9.4412 7.05735 9.4412 6.81812C9.4412 6.57888 9.34616 6.34945 9.177 6.18029C9.00784 6.01112 8.7784 5.91609 8.53917 5.91609H1.32293Z" />
</svg>
