<svg viewBox="0 0 18 18"  >
<path fill-rule="evenodd" clip-rule="evenodd" d="M1.51001 9C1.51001 6.68843 2.33261 4.89078 3.61905 3.66877C4.91143 2.44112 6.7194 1.75 8.76001 1.75C9.17422 1.75 9.51001 1.41421 9.51001 1C9.51001 0.585786 9.17422 0.25 8.76001 0.25C6.38062 0.25 4.18859 1.05888 2.58597 2.58123C0.977407 4.10922 0.0100098 6.31157 0.0100098 9C0.0100098 11.6884 0.977407 13.8908 2.58597 15.4188C4.18859 16.9411 6.38062 17.75 8.76001 17.75C9.17422 17.75 9.51001 17.4142 9.51001 17C9.51001 16.5858 9.17422 16.25 8.76001 16.25C6.7194 16.25 4.91143 15.5589 3.61905 14.3312C2.33261 13.1092 1.51001 11.3116 1.51001 9ZM13.9096 5.96967C14.2025 5.67678 14.6774 5.67678 14.9703 5.96967L17.5303 8.52967C17.8232 8.82256 17.8232 9.29744 17.5303 9.59033L14.9703 12.1503C14.6774 12.4432 14.2025 12.4432 13.9096 12.1503C13.6167 11.8574 13.6167 11.3826 13.9096 11.0897L15.1892 9.81006H6.76001C6.3458 9.81006 6.01001 9.47427 6.01001 9.06006C6.01001 8.64585 6.3458 8.31006 6.76001 8.31006H15.1893L13.9096 7.03033C13.6167 6.73744 13.6167 6.26256 13.9096 5.96967Z" />
</svg>
