<svg viewBox="0 0 18 14">
<path fill-rule="evenodd" clip-rule="evenodd" d="M1.5 0C1.08579 0 0.75 0.335786 0.75 0.75C0.75 1.16421 1.08579 1.5 1.5 1.5H16.5C16.9142 1.5 17.25 1.16421 17.25 0.75C17.25 0.335786 16.9142 0 16.5 0H1.5ZM1.5 4.1665C1.08579 4.1665 0.75 4.50229 0.75 4.9165C0.75 5.33072 1.08579 5.6665 1.5 5.6665H9.39167C9.80588 5.6665 10.1417 5.33072 10.1417 4.9165C10.1417 4.50229 9.80588 4.1665 9.39167 4.1665H1.5ZM0.75 9.0835C0.75 8.66928 1.08579 8.3335 1.5 8.3335H16.5C16.9142 8.3335 17.25 8.66928 17.25 9.0835C17.25 9.49771 16.9142 9.8335 16.5 9.8335H1.5C1.08579 9.8335 0.75 9.49771 0.75 9.0835ZM1.5 12.5C1.08579 12.5 0.75 12.8358 0.75 13.25C0.75 13.6642 1.08579 14 1.5 14H9.39167C9.80588 14 10.1417 13.6642 10.1417 13.25C10.1417 12.8358 9.80588 12.5 9.39167 12.5H1.5Z" />
</svg>
