<svg width="257" height="257" viewBox="0 0 257 257" fill="none" xmlns="http://www.w3.org/2000/svg">
<g filter="url(#filter0_d_365_467)">
<path d="M128.5 174C160.256 174 186 148.256 186 116.5C186 84.7436 160.256 59 128.5 59C96.7436 59 71 84.7436 71 116.5C71 148.256 96.7436 174 128.5 174Z" fill="#E10C0C"/>
<path d="M128.5 174C160.256 174 186 148.256 186 116.5C186 84.7436 160.256 59 128.5 59C96.7436 59 71 84.7436 71 116.5C71 148.256 96.7436 174 128.5 174Z" stroke="#E10C0C" stroke-width="1.5" stroke-miterlimit="10" stroke-linecap="round" stroke-linejoin="round"/>
</g>
<path d="M128.5 135.5C138.993 135.5 147.5 126.993 147.5 116.5C147.5 106.007 138.993 97.5 128.5 97.5C118.007 97.5 109.5 106.007 109.5 116.5C109.5 126.993 118.007 135.5 128.5 135.5Z" fill="white"/>
<path d="M128.5 190C169.093 190 202 157.093 202 116.5C202 75.9071 169.093 43 128.5 43C87.9071 43 55 75.9071 55 116.5C55 157.093 87.9071 190 128.5 190Z" stroke="#FAFAFF" stroke-opacity="0.5" stroke-linecap="round" stroke-linejoin="round"/>
<defs>
<filter id="filter0_d_365_467" x="0.25" y="0.25" width="256.5" height="256.5" filterUnits="userSpaceOnUse" color-interpolation-filters="sRGB">
<feFlood flood-opacity="0" result="BackgroundImageFix"/>
<feColorMatrix in="SourceAlpha" type="matrix" values="0 0 0 0 0 0 0 0 0 0 0 0 0 0 0 0 0 0 127 0" result="hardAlpha"/>
<feOffset dy="12"/>
<feGaussianBlur stdDeviation="35"/>
<feComposite in2="hardAlpha" operator="out"/>
<feColorMatrix type="matrix" values="0 0 0 0 0.909804 0 0 0 0 0.282353 0 0 0 0 0.2 0 0 0 0.59 0"/>
<feBlend mode="normal" in2="BackgroundImageFix" result="effect1_dropShadow_365_467"/>
<feBlend mode="normal" in="SourceGraphic" in2="effect1_dropShadow_365_467" result="shape"/>
</filter>
</defs>
</svg>
