<svg viewBox="0 0 16 16" >
<path d="M7.45325 15.1131C9.22336 15.1136 10.9353 14.4721 12.2795 13.3045L14.7206 15.7795C14.8621 15.9216 15.0534 16.0009 15.2526 16C15.4517 15.9991 15.6423 15.918 15.7825 15.7746C15.9227 15.6312 16.0009 15.4372 16 15.2353C15.9991 15.0334 15.9191 14.8401 15.7777 14.698L13.3365 12.2043C14.3625 10.8793 14.9159 9.24113 14.9065 7.55657C14.9065 6.06202 14.4694 4.60104 13.6504 3.35837C12.8314 2.1157 11.6674 1.14715 10.3055 0.575213C8.94358 0.0032741 7.44498 -0.146371 5.99919 0.145201C4.55341 0.436772 3.22536 1.15647 2.18301 2.21327C1.14065 3.27007 0.430801 4.61652 0.143215 6.08235C-0.14437 7.54818 0.00322934 9.06756 0.567348 10.4483C1.13147 11.8291 2.08677 13.0093 3.31245 13.8396C4.53813 14.6699 5.97914 15.1131 7.45325 15.1131ZM7.45325 1.51917C8.63063 1.51917 9.78156 1.87314 10.7605 2.53632C11.7395 3.1995 12.5025 4.14211 12.953 5.24494C13.4036 6.34777 13.5215 7.5613 13.2918 8.73206C13.0621 9.90282 12.4951 10.9782 11.6626 11.8223C10.8301 12.6664 9.76936 13.2412 8.61461 13.4741C7.45985 13.707 6.26292 13.5874 5.17517 13.1306C4.08741 12.6738 3.15769 11.9002 2.50358 10.9077C1.84946 9.91519 1.50033 8.7483 1.50033 7.5546C1.50187 5.95475 2.12967 4.42092 3.24584 3.29002C4.362 2.15911 5.87527 1.52361 7.45325 1.52309V1.51917Z" />
</svg>
 
