<svg viewBox="0 0 26 44">
<path fill-rule="evenodd" clip-rule="evenodd" d="M11.957 0H12.8661V35.3951C13.0041 35.5389 13.1292 35.6935 13.2404 35.8587C14.7161 38.052 13.135 41.2049 9.76177 42.9412C6.38858 44.6319 2.43562 44.2664 0.959855 42.0731C-0.515918 39.8797 1.06527 36.7268 4.43846 35.0362C7.07784 33.7133 10.0722 33.6213 11.957 34.6946V0ZM22.8987 19.6565C22.5901 16.545 22.1552 12.161 13.0193 7.53608C15.2709 11.3701 17.8499 14.1889 20.0838 16.6306C21.1274 17.7713 22.0957 18.8296 22.9201 19.8707L22.8987 19.6565ZM12.8662 0V7.27295V7.45897V15.5496C13.6111 15.9875 14.3281 16.3999 15.0144 16.7946L15.0146 16.7947C22.7285 21.231 26.5549 23.4316 22.334 34.5457C26.7903 27.9939 26.1652 24.3301 23.5145 20.655C24.7136 14.0076 21.5718 10.8677 18.2913 7.58907C16.1549 5.45389 13.9596 3.2599 12.8662 0Z"/>
</svg>
