<svg viewBox="0 0 20 20" >
<path fill-rule="evenodd" clip-rule="evenodd" d="M3 2.5C3 1.12386 4.12386 0 5.5 0H17.5C18.163 0 18.7989 0.263392 19.2678 0.732233C19.7366 1.20107 20 1.83696 20 2.5V14.5C20 15.8861 18.8861 17 17.5 17H5.5C4.83696 17 4.20107 16.7366 3.73223 16.2678C3.26339 15.7989 3 15.163 3 14.5V2.5ZM5.5 1C4.67614 1 4 1.67614 4 2.5V14.5C4 14.8978 4.15804 15.2794 4.43934 15.5607C4.72064 15.842 5.10218 16 5.5 16H17.5C18.3339 16 19 15.3339 19 14.5V2.5C19 2.10218 18.842 1.72064 18.5607 1.43934C18.2794 1.15804 17.8978 1 17.5 1H5.5ZM7.97586 5.65124L10.8052 8.50062L7.97648 11.3394L8.66938 12.0323L11.5 9.19164L14.3306 12.0323L15.0235 11.3394L12.1929 8.49875L15.0323 5.66938L14.3394 4.97648L11.4981 7.80773L8.66875 4.95835L7.97586 5.65124ZM0 5V18.5C0 18.8978 0.158035 19.2794 0.43934 19.5607C0.720644 19.842 1.10218 20 1.5 20H15V19H1V5H0Z"/>
</svg>
